<svg id="Icons" enable-background="new 0 0 512 512" height="512" viewBox="0 0 512 512" width="512" xmlns="http://www.w3.org/2000/svg"><g><g><circle cx="256" cy="256" fill="#0989d8" r="256"/><circle cx="256" cy="256" fill="#29a3fb" r="196.78"/></g><g><g><g><path d="m465.67 332.67v70.24c-7.47 10.65-15.73 20.7-24.7 30.07v-100.31z" fill="#d48d77"/><path d="m71.03 332.67v100.31c-8.97-9.37-17.23-19.42-24.7-30.07v-70.24z" fill="#c17e62"/></g><g><path d="m477.34 320.99c0 6.45-5.22 11.68-11.67 11.68h-419.34c-3.23 0-6.14-1.31-8.25-3.42-2.12-2.11-3.42-5.03-3.42-8.26 0-6.45 5.22-11.67 11.67-11.67h419.34c3.23 0 6.14 1.3 8.25 3.42 2.12 2.11 3.42 5.02 3.42 8.25z" fill="#f5b890"/><path d="m477.34 320.99c0 6.45-5.22 11.68-11.67 11.68h-209.67v-23.35h209.67c3.23 0 6.14 1.3 8.25 3.42 2.12 2.11 3.42 5.02 3.42 8.25z" fill="#f3c3b1"/></g><g><path d="m71.03 332.67v43.85h.001v13.41h102.941c3.703 0 6.705-3.002 6.705-6.705 0-3.703 3.002-6.705 6.705-6.705h137.235c3.703 0 6.705 3.002 6.705 6.705 0 3.703 3.002 6.705 6.705 6.705h102.943v-13.41-28.097-15.753z" fill="#eea47d"/><path d="m256 332.67v43.85h68.617c3.703 0 6.705 3.002 6.705 6.705 0 3.703 3.002 6.705 6.705 6.705h102.943v-13.41-28.097-15.753z" fill="#f5b890"/><g><path d="m430.969 348.644v25.313c0 3.297-2.67 5.974-5.974 5.974h-77.698c-3.304 0-5.974-2.677-5.974-5.974v-25.313c0-3.297 2.67-5.974 5.974-5.974h77.698c3.303 0 5.974 2.676 5.974 5.974z" fill="#d48d77"/><path d="m430.969 348.644v25.313c0 3.297-2.67 5.974-5.974 5.974h-38.849v-37.26h38.849c3.303-.001 5.974 2.675 5.974 5.973z" fill="#eea47d"/><path d="m430.969 348.644v23.72h-76.106c-3.297 0-5.974-2.677-5.974-5.974v-23.72h76.106c3.303 0 5.974 2.676 5.974 5.974z" fill="#eea47d"/><path d="m430.969 348.644v23.72h-44.823v-29.694h38.849c3.303 0 5.974 2.676 5.974 5.974z" fill="#f5b890"/><path d="m403.579 357.517c0 .819-.215 1.583-.599 2.243-.774 1.339-2.223 2.243-3.881 2.243h-25.906c-1.234 0-2.358-.505-3.167-1.314-.275-.275-.52-.589-.714-.929-.385-.659-.599-1.424-.599-2.243 0-2.478 2.008-4.486 4.481-4.486h25.906c1.234 0 2.358.505 3.167 1.314.813.809 1.312 1.933 1.312 3.172z" fill="#c17e62"/><path d="m399.098 357.517c1.234 0 2.358.505 3.167 1.314.275.275.52.589.714.929-.774 1.339-2.223 2.243-3.881 2.243h-25.906c-1.234 0-2.358-.505-3.167-1.314-.275-.275-.52-.589-.714-.929.774-1.339 2.223-2.243 3.881-2.243z" fill="#d48d77"/><path d="m421.888 368.374c-2.257 0-4.087-1.83-4.087-4.087v-12.52c0-2.257 1.83-4.087 4.087-4.087 2.257 0 4.087 1.83 4.087 4.087v12.52c0 2.257-1.83 4.087-4.087 4.087z" fill="#f3c3b1"/></g><g><path d="m170.678 348.644v25.313c0 3.297-2.67 5.974-5.974 5.974h-77.699c-3.304 0-5.974-2.677-5.974-5.974v-25.313c0-3.297 2.67-5.974 5.974-5.974h77.698c3.304 0 5.975 2.676 5.975 5.974z" fill="#c17e62"/><path d="m170.678 348.644v25.313c0 3.297-2.67 5.974-5.974 5.974h-38.849v-37.26h38.849c3.303-.001 5.974 2.675 5.974 5.973z" fill="#d48d77"/><path d="m170.678 348.644v23.72h-76.107c-3.297 0-5.974-2.677-5.974-5.974v-23.72h76.106c3.304 0 5.975 2.676 5.975 5.974z" fill="#d48d77"/><path d="m170.678 348.644v23.72h-44.823v-29.694h38.849c3.303 0 5.974 2.676 5.974 5.974z" fill="#eea47d"/><path d="m143.288 357.517c0 .819-.215 1.583-.599 2.243-.774 1.339-2.223 2.243-3.881 2.243h-25.906c-1.234 0-2.358-.505-3.167-1.314-.275-.275-.52-.589-.714-.929-.385-.659-.599-1.424-.599-2.243 0-2.478 2.008-4.486 4.481-4.486h25.906c1.234 0 2.358.505 3.167 1.314.813.809 1.312 1.933 1.312 3.172z" fill="#a26d5a"/><path d="m138.807 357.517c1.234 0 2.358.505 3.167 1.314.275.275.52.589.714.929-.774 1.339-2.223 2.243-3.881 2.243h-25.906c-1.234 0-2.358-.505-3.167-1.314-.275-.275-.52-.589-.714-.929.774-1.339 2.223-2.243 3.881-2.243z" fill="#c17e62"/><path d="m161.597 368.374c-2.257 0-4.087-1.83-4.087-4.087v-12.52c0-2.257 1.83-4.087 4.087-4.087 2.257 0 4.087 1.83 4.087 4.087v12.52c0 2.257-1.83 4.087-4.087 4.087z" fill="#f5b890"/></g></g></g><g><g><g><path d="m184.927 149.682v148.872c0 5.951-4.819 10.77-10.77 10.77h-76.075c-5.951 0-10.77-4.819-10.77-10.77v-148.872c0-1.486.843-2.851 2.185-3.51l15.67-7.734c2.602-1.285 5.654.61 5.654 3.518v80.524h50.599v-80.524c0-2.908 3.052-4.803 5.654-3.518l15.67 7.734c1.34.658 2.183 2.024 2.183 3.51z" fill="#334353"/><path d="m184.927 149.682v148.872c0 5.951-4.819 10.77-10.77 10.77h-38.037v-86.845h25.299v-80.524c0-2.908 3.052-4.803 5.654-3.518l15.67 7.734c1.341.659 2.184 2.025 2.184 3.511z" fill="#3e4e60"/></g><g><g><path d="m161.419 165.386v46.446c0 3.044-2.474 5.518-5.518 5.518h-39.563c-3.052 0-5.518-2.474-5.518-5.518v-46.446c0-3.606 1.952-6.931 5.108-8.69l15.356-8.546c1.502-.835 3.165-1.253 4.835-1.253 1.671 0 3.333.418 4.835 1.253l15.356 8.546c3.149 1.759 5.109 5.084 5.109 8.69z" fill="#3f5d77"/><path d="m161.419 165.386v46.446c0 3.044-2.474 5.518-5.518 5.518h-19.782v-70.453c1.671 0 3.333.418 4.835 1.253l15.356 8.546c3.149 1.759 5.109 5.084 5.109 8.69z" fill="#3f6c8e"/><path d="m161.419 177.538v34.294c0 3.044-2.474 5.518-5.518 5.518h-39.563c-3.052 0-5.518-2.474-5.518-5.518v-34.294c0-3.606 1.952-6.932 5.108-8.69l15.356-8.545c1.502-.835 3.165-1.253 4.835-1.253 1.671 0 3.333.418 4.835 1.253l15.356 8.545c3.149 1.758 5.109 5.083 5.109 8.69z" fill="#3e4e60"/><path d="m161.419 177.538v34.294c0 3.044-2.474 5.518-5.518 5.518h-19.782v-58.301c1.671 0 3.333.418 4.835 1.253l15.356 8.545c3.149 1.759 5.109 5.084 5.109 8.691z" fill="#3f5d77"/></g><g><path d="m161.419 199.619v46.446c0 3.044-2.474 5.518-5.518 5.518h-39.563c-3.052 0-5.518-2.474-5.518-5.518v-46.446c0-3.606 1.952-6.931 5.108-8.69l15.356-8.546c1.502-.835 3.165-1.253 4.835-1.253 1.671 0 3.333.418 4.835 1.253l15.356 8.546c3.149 1.759 5.109 5.084 5.109 8.69z" fill="#3f5d77"/><path d="m161.419 199.619v46.446c0 3.044-2.474 5.518-5.518 5.518h-19.782v-70.453c1.671 0 3.333.418 4.835 1.253l15.356 8.546c3.149 1.759 5.109 5.084 5.109 8.69z" fill="#3f6c8e"/><path d="m161.419 211.771v34.294c0 3.044-2.474 5.518-5.518 5.518h-39.563c-3.052 0-5.518-2.474-5.518-5.518v-34.294c0-3.606 1.952-6.932 5.108-8.69l15.356-8.545c1.502-.835 3.165-1.253 4.835-1.253 1.671 0 3.333.418 4.835 1.253l15.356 8.545c3.149 1.758 5.109 5.083 5.109 8.69z" fill="#3e4e60"/><path d="m161.419 211.771v34.294c0 3.044-2.474 5.518-5.518 5.518h-19.782v-58.301c1.671 0 3.333.418 4.835 1.253l15.356 8.545c3.149 1.759 5.109 5.084 5.109 8.691z" fill="#3f5d77"/></g><g><path d="m161.419 233.852v46.446c0 3.044-2.474 5.518-5.518 5.518h-39.563c-3.052 0-5.518-2.474-5.518-5.518v-46.446c0-3.606 1.952-6.931 5.108-8.69l15.356-8.546c1.502-.835 3.165-1.253 4.835-1.253 1.671 0 3.333.418 4.835 1.253l15.356 8.546c3.149 1.759 5.109 5.084 5.109 8.69z" fill="#3f5d77"/><path d="m161.419 233.852v46.446c0 3.044-2.474 5.518-5.518 5.518h-19.782v-70.453c1.671 0 3.333.418 4.835 1.253l15.356 8.546c3.149 1.759 5.109 5.084 5.109 8.69z" fill="#3f6c8e"/><path d="m161.419 246.004v34.294c0 3.044-2.474 5.518-5.518 5.518h-39.563c-3.052 0-5.518-2.474-5.518-5.518v-34.294c0-3.606 1.952-6.932 5.108-8.69l15.356-8.545c1.502-.835 3.165-1.253 4.835-1.253 1.671 0 3.333.418 4.835 1.253l15.356 8.545c3.149 1.758 5.109 5.084 5.109 8.69z" fill="#3e4e60"/><path d="m161.419 246.004v34.294c0 3.044-2.474 5.518-5.518 5.518h-19.782v-58.301c1.671 0 3.333.418 4.835 1.253l15.356 8.545c3.149 1.759 5.109 5.085 5.109 8.691z" fill="#3f5d77"/></g><g><g><path d="m136.119 276.092c-7.979 0-14.47-6.491-14.47-14.47 0-4.939 2.481-9.488 6.637-12.168.836-.539 1.952-.299 2.492.538s.299 1.952-.538 2.492c-3.122 2.013-4.986 5.429-4.986 9.138 0 5.991 4.874 10.865 10.865 10.865s10.865-4.874 10.865-10.865c0-3.709-1.864-7.125-4.986-9.138-.837-.54-1.078-1.655-.538-2.492s1.655-1.077 2.492-.538c4.156 2.68 6.637 7.229 6.637 12.168 0 7.978-6.491 14.47-14.47 14.47z" fill="#53b976"/></g><g><path d="m136.119 274.027c-7.639 0-13.909-5.951-14.431-13.459-.025.349-.039.7-.039 1.054 0 7.979 6.491 14.47 14.47 14.47s14.47-6.491 14.47-14.47c0-.353-.014-.705-.039-1.054-.521 7.508-6.792 13.459-14.431 13.459z" fill="#50755c"/></g><g><path d="m137.922 245.186v9.206c0 .997-.808 1.803-1.803 1.803-.997 0-1.803-.806-1.803-1.803v-9.206c0-.995.806-1.803 1.803-1.803.996 0 1.803.808 1.803 1.803z" fill="#50755c"/></g><g><path d="m137.922 245.186v7.142c0 .995-.808 1.803-1.803 1.803-.997 0-1.803-.808-1.803-1.803v-7.142c0-.995.806-1.803 1.803-1.803.996 0 1.803.808 1.803 1.803z" fill="#53b976"/></g></g></g></g><g><path d="m326.207 248.963h-25.832c-4.574 0-8.281 3.708-8.281 8.281v34.114h42.395v-34.114c0-4.573-3.708-8.281-8.282-8.281z" fill="#334353"/><path d="m361.861 291.358h-97.14c-4.96 0-8.981 4.021-8.981 8.981 0 4.96 4.021 8.981 8.981 8.981h97.14c4.96 0 8.981-4.021 8.981-8.981.001-4.96-4.02-8.981-8.981-8.981z" fill="#334353"/><path d="m343.239 291.358h-59.895c-3.058 0-5.538 2.479-5.538 5.538 0 3.058 2.479 5.538 5.538 5.538h59.895c3.058 0 5.538-2.479 5.538-5.538-.001-3.059-2.48-5.538-5.538-5.538z" fill="#3e4e60"/><path d="m404.688 151.24v101.342c0 2.763-.821 5.346-2.24 7.505-1.78 2.763-4.524 4.823-7.767 5.725-1.183.342-2.446.523-3.722.523h-155.336c-1.301 0-2.539-.18-3.722-.523-3.242-.902-5.987-2.962-7.767-5.725-1.419-2.16-2.24-4.742-2.24-7.505v-101.342c0-1.276.18-2.539.516-3.722 1.282-4.587 4.885-8.209 9.491-9.491 1.183-.336 2.446-.517 3.722-.517h155.337c1.301 0 2.539.18 3.722.517 4.587 1.282 8.209 4.885 9.491 9.491.335 1.183.515 2.447.515 3.722z" fill="#3f5d77"/><path d="m241.915 151.24v101.342c0 2.763-.822 5.346-2.247 7.505-1.78 2.763-4.524 4.823-7.767 5.725-3.242-.902-5.987-2.962-7.767-5.725-1.419-2.16-2.24-4.742-2.24-7.505v-101.342c0-6.286 4.219-11.588 10.007-13.212 5.788 1.624 10.014 6.927 10.014 13.212z" fill="#3e4e60"/><path d="m404.688 151.24v101.342c0 2.763-.821 5.346-2.24 7.505-1.78 2.763-4.524 4.823-7.767 5.725-3.242-.902-5.987-2.962-7.767-5.725-1.425-2.16-2.247-4.742-2.247-7.505v-101.342c0-6.304 4.244-11.607 10.014-13.212 5.763 1.606 10.007 6.908 10.007 13.212z" fill="#3f6c8e"/><path d="m404.688 238.007v14.575c0 2.763-.821 5.346-2.24 7.505-1.78 2.763-4.524 4.823-7.767 5.725-1.183.342-2.446.523-3.722.523h-155.336c-1.301 0-2.539-.18-3.722-.523-3.242-.902-5.987-2.962-7.767-5.725-1.419-2.16-2.24-4.742-2.24-7.505v-14.575z" fill="#3e4e60"/><path d="m241.915 238.007v14.575c0 2.763-.822 5.346-2.247 7.505-1.78 2.763-4.524 4.823-7.767 5.725-3.242-.902-5.987-2.962-7.767-5.725-1.419-2.16-2.24-4.742-2.24-7.505v-14.575z" fill="#334353"/><path d="m404.688 238.007v14.575c0 2.763-.821 5.346-2.24 7.505-1.78 2.763-4.524 4.823-7.767 5.725-3.242-.902-5.987-2.962-7.767-5.725-1.425-2.16-2.247-4.742-2.247-7.505v-14.575z" fill="#3f5d77"/><path d="m324.225 252.172h-21.867c-2.817 0-5.101 2.284-5.101 5.101 0 2.817 2.284 5.101 5.101 5.101h21.867c2.817 0 5.101-2.284 5.101-5.101-.001-2.818-2.284-5.101-5.101-5.101z" fill="#334353"/><path d="m354.054 147.522h-65.058c-2.764 0-5.005-2.241-5.005-5.005 0-2.764 2.241-5.005 5.005-5.005h65.058c2.764 0 5.005 2.241 5.005 5.005 0 2.764-2.241 5.005-5.005 5.005z" fill="#3f6c8e"/><path d="m386.009 248.469h-145.435c-4.788 0-8.669-3.881-8.669-8.669v-83.608c0-4.788 3.881-8.669 8.669-8.669h145.434c4.788 0 8.669 3.881 8.669 8.669v83.608c.001 4.788-3.88 8.669-8.668 8.669z" fill="#7ed0fc"/></g></g></g></g></svg>